<mxfile host="Electron" modified="2023-11-05T04:58:52.643Z" agent="Mozilla/5.0 (Windows NT 10.0; Win64; x64) AppleWebKit/537.36 (KHTML, like Gecko) draw.io/22.0.3 Chrome/114.0.5735.289 Electron/25.8.4 Safari/537.36" etag="Mtora3U10aSb1DD5EQI8" version="22.0.3" type="device">
  <diagram name="Page-1" id="Ty_NPIr8UMJ6YvIxmLYT">
    <mxGraphModel dx="1038" dy="608" grid="1" gridSize="10" guides="1" tooltips="1" connect="1" arrows="1" fold="1" page="1" pageScale="1" pageWidth="827" pageHeight="1169" math="0" shadow="0">
      <root>
        <mxCell id="0" />
        <mxCell id="1" parent="0" />
        <mxCell id="UkepkLBr_rH7Vj_UJoZB-37" value="&lt;font style=&quot;font-size: 14px;&quot;&gt;&amp;nbsp;Arhitectura generala a sistemului&amp;nbsp;&lt;/font&gt;&lt;font style=&quot;font-size: 16px;&quot; face=&quot;Tahoma&quot;&gt;APItoROefact&lt;/font&gt;&lt;span style=&quot;background-color: initial;&quot;&gt;&amp;nbsp;&lt;/span&gt;&lt;font face=&quot;Lucida Console&quot; style=&quot;background-color: initial; font-size: 13px;&quot;&gt;(api_to_roefact)&lt;/font&gt;" style="rounded=0;whiteSpace=wrap;html=1;fillColor=#ffffff;align=left;verticalAlign=top;fontFamily=Verdana;fontSize=15;fontStyle=1;strokeColor=#000000;fontColor=#000000;" parent="1" vertex="1">
          <mxGeometry x="20" width="710" height="500" as="geometry" />
        </mxCell>
        <mxCell id="UkepkLBr_rH7Vj_UJoZB-34" value="&lt;font style=&quot;font-size: 10px;&quot;&gt;elemente externe sistemului&lt;/font&gt;&lt;br&gt;&lt;b&gt;&lt;font style=&quot;font-size: 12px;&quot;&gt;api_to_roefact&lt;/font&gt;&lt;/b&gt;" style="rounded=0;whiteSpace=wrap;html=1;verticalAlign=top;dashed=1;strokeWidth=1;fillColor=#DBDBDB;fontColor=#000000;strokeColor=#000000;" parent="1" vertex="1">
          <mxGeometry x="50" y="60" width="150" height="420" as="geometry" />
        </mxCell>
        <mxCell id="UkepkLBr_rH7Vj_UJoZB-1" value="&lt;div style=&quot;line-height: 22px;&quot;&gt;&lt;div style=&quot;font-size: 11px; line-height: 22px;&quot;&gt;BASE_PROC&lt;/div&gt;&lt;div style=&quot;line-height: 22px;&quot;&gt;&lt;span style=&quot;font-weight: normal;&quot;&gt;&lt;font style=&quot;font-size: 9px;&quot; face=&quot;Lucida Console&quot;&gt;(base_proc/)&lt;/font&gt;&lt;/span&gt;&lt;br&gt;&lt;/div&gt;&lt;/div&gt;" style="rounded=0;whiteSpace=wrap;html=1;fontFamily=Verdana;fontSize=11;fontStyle=1;fillColor=#1ba1e2;fontColor=#ffffff;strokeColor=#006EAF;labelBackgroundColor=none;" parent="1" vertex="1">
          <mxGeometry x="501" y="187" width="120" height="60" as="geometry" />
        </mxCell>
        <mxCell id="UkepkLBr_rH7Vj_UJoZB-2" value="&lt;div style=&quot;color: rgb(255, 255, 255); line-height: 22px;&quot;&gt;&lt;div style=&quot;line-height: 22px;&quot;&gt;&lt;div style=&quot;font-size: 11px; line-height: 22px;&quot;&gt;WEB_DASHB&lt;/div&gt;&lt;div style=&quot;line-height: 22px;&quot;&gt;&lt;font style=&quot;font-weight: normal; font-size: 9px;&quot; face=&quot;Lucida Console&quot;&gt;(web_dasb_app/)&lt;/font&gt;&lt;/div&gt;&lt;/div&gt;&lt;/div&gt;" style="rounded=0;whiteSpace=wrap;html=1;fontFamily=Verdana;fontStyle=1;fontSize=11;fillColor=#1ba1e2;fontColor=#ffffff;strokeColor=#000000;labelBackgroundColor=none;" parent="1" vertex="1">
          <mxGeometry x="250" y="187" width="120" height="60" as="geometry" />
        </mxCell>
        <mxCell id="UkepkLBr_rH7Vj_UJoZB-3" value="&lt;div style=&quot;line-height: 22px;&quot;&gt;&lt;div style=&quot;font-size: 11px; line-height: 22px;&quot;&gt;SYSTEM_DB&lt;/div&gt;&lt;div style=&quot;line-height: 22px;&quot;&gt;&lt;font style=&quot;font-size: 9px; font-weight: normal;&quot; face=&quot;Lucida Console&quot;&gt;(data/)&lt;/font&gt;&lt;/div&gt;&lt;/div&gt;" style="shape=cylinder3;whiteSpace=wrap;html=1;boundedLbl=1;backgroundOutline=1;size=15;fontFamily=Verdana;fontSize=11;fontStyle=1;strokeColor=#006EAF;fillColor=#1ba1e2;fontColor=#ffffff;labelBackgroundColor=none;" parent="1" vertex="1">
          <mxGeometry x="501" y="270" width="120" height="80" as="geometry" />
        </mxCell>
        <mxCell id="UkepkLBr_rH7Vj_UJoZB-4" value="&lt;font color=&quot;#000000&quot;&gt;web&lt;/font&gt;" style="ellipse;shape=cloud;whiteSpace=wrap;html=1;fillColor=#FFFFFF;fontColor=#ffffff;strokeColor=#000000;" parent="1" vertex="1">
          <mxGeometry x="250" y="51" width="120" height="80" as="geometry" />
        </mxCell>
        <mxCell id="UkepkLBr_rH7Vj_UJoZB-6" value="&lt;div style=&quot;color: rgb(255, 255, 255); font-family: Consolas, &amp;quot;Courier New&amp;quot;, monospace; font-size: 16px; line-height: 22px;&quot;&gt;factura emisa&lt;/div&gt;&lt;div style=&quot;color: rgb(255, 255, 255); font-family: Consolas, &amp;quot;Courier New&amp;quot;, monospace; font-size: 16px; line-height: 22px;&quot;&gt;(f-XLSX)&lt;/div&gt;" style="shape=document;whiteSpace=wrap;html=1;boundedLbl=1;fillColor=#008a00;fontColor=#ffffff;strokeColor=#000000;labelBackgroundColor=none;" parent="1" vertex="1">
          <mxGeometry x="66" y="270" width="120" height="80" as="geometry" />
        </mxCell>
        <mxCell id="UkepkLBr_rH7Vj_UJoZB-7" value="&lt;div style=&quot;font-family: Consolas, &amp;quot;Courier New&amp;quot;, monospace; font-size: 16px; line-height: 22px;&quot;&gt;factura emisa&lt;/div&gt;&lt;div style=&quot;font-family: Consolas, &amp;quot;Courier New&amp;quot;, monospace; font-size: 16px; line-height: 22px;&quot;&gt;(f-XML)&lt;br&gt;&lt;/div&gt;" style="shape=document;whiteSpace=wrap;html=1;boundedLbl=1;fillColor=#e3c800;fontColor=#000000;strokeColor=#000000;labelBackgroundColor=none;" parent="1" vertex="1">
          <mxGeometry x="467" y="378" width="120" height="80" as="geometry" />
        </mxCell>
        <mxCell id="UkepkLBr_rH7Vj_UJoZB-8" value="&lt;div style=&quot;font-family: Consolas, &amp;quot;Courier New&amp;quot;, monospace; font-size: 11px; line-height: 22px;&quot;&gt;factura emisa&lt;/div&gt;&lt;div style=&quot;font-family: Consolas, &amp;quot;Courier New&amp;quot;, monospace; font-size: 11px; line-height: 22px;&quot;&gt;(f-JSON)&lt;br style=&quot;font-size: 11px;&quot;&gt;&lt;/div&gt;" style="shape=document;whiteSpace=wrap;html=1;boundedLbl=1;fontSize=11;dashed=1;fillColor=#e3c800;strokeColor=#000000;fontColor=#000000;labelBackgroundColor=none;" parent="1" vertex="1">
          <mxGeometry x="607" y="376" width="90" height="63" as="geometry" />
        </mxCell>
        <mxCell id="UkepkLBr_rH7Vj_UJoZB-9" value="" style="endArrow=none;html=1;rounded=0;strokeColor=#000000;" parent="1" source="UkepkLBr_rH7Vj_UJoZB-2" target="UkepkLBr_rH7Vj_UJoZB-4" edge="1">
          <mxGeometry width="50" height="50" relative="1" as="geometry">
            <mxPoint x="570" y="350" as="sourcePoint" />
            <mxPoint x="620" y="300" as="targetPoint" />
          </mxGeometry>
        </mxCell>
        <mxCell id="UkepkLBr_rH7Vj_UJoZB-10" value="&lt;i&gt;procesare&lt;/i&gt;&lt;br style=&quot;font-size: 12px; font-style: italic;&quot;&gt;&lt;span style=&quot;font-size: 12px; font-style: italic;&quot;&gt;manuala&lt;/span&gt;" style="endArrow=none;html=1;rounded=0;strokeWidth=5;strokeColor=#000000;labelBackgroundColor=#FFFFFF;fontColor=#000000;edgeStyle=orthogonalEdgeStyle;exitX=0.5;exitY=0;exitDx=0;exitDy=0;" parent="1" source="UkepkLBr_rH7Vj_UJoZB-1" target="UkepkLBr_rH7Vj_UJoZB-5" edge="1">
          <mxGeometry width="50" height="50" relative="1" as="geometry">
            <mxPoint x="380" y="140" as="sourcePoint" />
            <mxPoint x="720" y="70" as="targetPoint" />
          </mxGeometry>
        </mxCell>
        <mxCell id="UkepkLBr_rH7Vj_UJoZB-14" value="procesare&lt;br style=&quot;font-size: 12px;&quot;&gt;WEB" style="endArrow=none;html=1;rounded=0;strokeWidth=5;fontSize=12;fontStyle=2;strokeColor=#000000;labelBackgroundColor=#ffffff;fontColor=#000000;" parent="1" source="UkepkLBr_rH7Vj_UJoZB-4" target="UkepkLBr_rH7Vj_UJoZB-5" edge="1">
          <mxGeometry width="50" height="50" relative="1" as="geometry">
            <mxPoint x="700" y="159" as="sourcePoint" />
            <mxPoint x="840" y="133" as="targetPoint" />
          </mxGeometry>
        </mxCell>
        <mxCell id="UkepkLBr_rH7Vj_UJoZB-16" value="" style="endArrow=none;html=1;rounded=0;strokeColor=#000000;" parent="1" source="UkepkLBr_rH7Vj_UJoZB-1" target="UkepkLBr_rH7Vj_UJoZB-2" edge="1">
          <mxGeometry width="50" height="50" relative="1" as="geometry">
            <mxPoint x="260" y="310" as="sourcePoint" />
            <mxPoint x="310" y="260" as="targetPoint" />
          </mxGeometry>
        </mxCell>
        <mxCell id="UkepkLBr_rH7Vj_UJoZB-17" value="" style="endArrow=none;dashed=1;html=1;rounded=0;strokeColor=#000000;labelBackgroundColor=none;fontColor=#000000;" parent="1" source="UkepkLBr_rH7Vj_UJoZB-8" target="UkepkLBr_rH7Vj_UJoZB-3" edge="1">
          <mxGeometry width="50" height="50" relative="1" as="geometry">
            <mxPoint x="655" y="360" as="sourcePoint" />
            <mxPoint x="705" y="310" as="targetPoint" />
          </mxGeometry>
        </mxCell>
        <mxCell id="UkepkLBr_rH7Vj_UJoZB-18" value="" style="endArrow=none;html=1;rounded=0;strokeColor=#000000;" parent="1" source="UkepkLBr_rH7Vj_UJoZB-3" target="UkepkLBr_rH7Vj_UJoZB-1" edge="1">
          <mxGeometry width="50" height="50" relative="1" as="geometry">
            <mxPoint x="411" y="229" as="sourcePoint" />
            <mxPoint x="246" y="171" as="targetPoint" />
          </mxGeometry>
        </mxCell>
        <mxCell id="UkepkLBr_rH7Vj_UJoZB-20" value="preluare&lt;br&gt;factura" style="rounded=0;whiteSpace=wrap;html=1;dashed=1;strokeColor=#000000;" parent="1" vertex="1">
          <mxGeometry x="266" y="295" width="100" height="40" as="geometry" />
        </mxCell>
        <mxCell id="UkepkLBr_rH7Vj_UJoZB-21" value="generare&lt;br&gt;factura" style="rounded=0;whiteSpace=wrap;html=1;dashed=1;strokeColor=#000000;" parent="1" vertex="1">
          <mxGeometry x="266" y="355" width="100" height="40" as="geometry" />
        </mxCell>
        <mxCell id="UkepkLBr_rH7Vj_UJoZB-22" value="incarcare&lt;br&gt;factura" style="rounded=0;whiteSpace=wrap;html=1;dashed=1;strokeColor=#000000;" parent="1" vertex="1">
          <mxGeometry x="266" y="415" width="100" height="40" as="geometry" />
        </mxCell>
        <mxCell id="UkepkLBr_rH7Vj_UJoZB-23" value="" style="endArrow=none;dashed=1;html=1;rounded=0;strokeColor=#000000;" parent="1" source="UkepkLBr_rH7Vj_UJoZB-7" target="UkepkLBr_rH7Vj_UJoZB-3" edge="1">
          <mxGeometry width="50" height="50" relative="1" as="geometry">
            <mxPoint x="753" y="390" as="sourcePoint" />
            <mxPoint x="732" y="370" as="targetPoint" />
          </mxGeometry>
        </mxCell>
        <mxCell id="UkepkLBr_rH7Vj_UJoZB-24" value="" style="endArrow=classic;html=1;rounded=0;endFill=1;strokeColor=#000000;" parent="1" source="UkepkLBr_rH7Vj_UJoZB-6" target="UkepkLBr_rH7Vj_UJoZB-20" edge="1">
          <mxGeometry width="50" height="50" relative="1" as="geometry">
            <mxPoint x="96" y="445" as="sourcePoint" />
            <mxPoint x="146" y="395" as="targetPoint" />
          </mxGeometry>
        </mxCell>
        <mxCell id="UkepkLBr_rH7Vj_UJoZB-25" value="" style="endArrow=classic;html=1;rounded=0;endFill=1;strokeColor=#000000;" parent="1" source="UkepkLBr_rH7Vj_UJoZB-21" target="UkepkLBr_rH7Vj_UJoZB-7" edge="1">
          <mxGeometry width="50" height="50" relative="1" as="geometry">
            <mxPoint x="160" y="335" as="sourcePoint" />
            <mxPoint x="290" y="346" as="targetPoint" />
          </mxGeometry>
        </mxCell>
        <mxCell id="UkepkLBr_rH7Vj_UJoZB-26" value="" style="endArrow=classic;html=1;rounded=0;endFill=1;strokeColor=#000000;" parent="1" source="UkepkLBr_rH7Vj_UJoZB-7" target="UkepkLBr_rH7Vj_UJoZB-22" edge="1">
          <mxGeometry width="50" height="50" relative="1" as="geometry">
            <mxPoint x="390" y="417" as="sourcePoint" />
            <mxPoint x="490" y="431" as="targetPoint" />
          </mxGeometry>
        </mxCell>
        <mxCell id="UkepkLBr_rH7Vj_UJoZB-27" value="&lt;i&gt;sistem&lt;/i&gt;&lt;br&gt;&lt;b&gt;ANAF&lt;br&gt;E-Factura&lt;/b&gt;" style="ellipse;shape=cloud;whiteSpace=wrap;html=1;fillColor=#940000;fontColor=#ffffff;strokeColor=#000000;" parent="1" vertex="1">
          <mxGeometry x="57" y="375" width="120" height="80" as="geometry" />
        </mxCell>
        <mxCell id="UkepkLBr_rH7Vj_UJoZB-28" value="" style="endArrow=classic;html=1;rounded=0;endFill=1;strokeColor=#000000;" parent="1" source="UkepkLBr_rH7Vj_UJoZB-22" target="UkepkLBr_rH7Vj_UJoZB-27" edge="1">
          <mxGeometry width="50" height="50" relative="1" as="geometry">
            <mxPoint x="476" y="424" as="sourcePoint" />
            <mxPoint x="376" y="438" as="targetPoint" />
          </mxGeometry>
        </mxCell>
        <mxCell id="UkepkLBr_rH7Vj_UJoZB-29" value="" style="endArrow=classic;html=1;rounded=0;endFill=1;strokeColor=#000000;" parent="1" source="UkepkLBr_rH7Vj_UJoZB-20" target="UkepkLBr_rH7Vj_UJoZB-1" edge="1">
          <mxGeometry width="50" height="50" relative="1" as="geometry">
            <mxPoint x="210" y="347" as="sourcePoint" />
            <mxPoint x="290" y="349" as="targetPoint" />
          </mxGeometry>
        </mxCell>
        <mxCell id="VtLx-3Fwim2npLKYGWKy-1" value="" style="endArrow=none;html=1;rounded=0;" edge="1" parent="1">
          <mxGeometry width="50" height="50" relative="1" as="geometry">
            <mxPoint x="390" y="340" as="sourcePoint" />
            <mxPoint x="440" y="290" as="targetPoint" />
          </mxGeometry>
        </mxCell>
        <mxCell id="VtLx-3Fwim2npLKYGWKy-2" value="" style="endArrow=none;html=1;rounded=0;strokeColor=#000000;strokeWidth=2;" edge="1" parent="1">
          <mxGeometry width="50" height="50" relative="1" as="geometry">
            <mxPoint x="28" y="32" as="sourcePoint" />
            <mxPoint x="560" y="32" as="targetPoint" />
          </mxGeometry>
        </mxCell>
        <mxCell id="UkepkLBr_rH7Vj_UJoZB-5" value="client" style="shape=umlActor;verticalLabelPosition=bottom;verticalAlign=top;html=1;outlineConnect=0;strokeColor=#000000;fontColor=#000000;labelBackgroundColor=#ffffff;" parent="1" vertex="1">
          <mxGeometry x="670" y="60" width="30" height="60" as="geometry" />
        </mxCell>
      </root>
    </mxGraphModel>
  </diagram>
</mxfile>
